<svg xmlns="http://www.w3.org/2000/svg" width="79.609" height="92" viewBox="0 0 79.609 92">
  <g id="_1648123" data-name="1648123" transform="translate(-0.465 0.001)">
    <path id="Path_32556" data-name="Path 32556" d="M47.879,83.764l-23.6.13a6.615,6.615,0,0,1-6.646-6.582l-.283-59.048a6.6,6.6,0,0,1,.406-2.318,6.626,6.626,0,0,0-4.33,6.243l.283,59.048a6.614,6.614,0,0,0,6.646,6.582l27.7-.153a21.231,21.231,0,0,1-.2-2.885C47.853,84.44,47.863,84.1,47.879,83.764Zm0,0" transform="translate(-10.659 -13.311)" fill="#f3f3f3"/>
    <g id="Group_30392" data-name="Group 30392" transform="translate(0.465 -0.001)">
      <path id="Path_32557" data-name="Path 32557" d="M9.851,76.807H9.9l28.242-.16-.014-2.339-28.24.16a6.767,6.767,0,0,1-6.8-6.732L2.8,9.27a6.765,6.765,0,0,1,6.733-6.8l27.057-.13.053,10.985a9.1,9.1,0,0,0,9.1,9.062H45.8l10.986-.053.152,27.331,2.339-.013-.156-28.206,0-.336a1.17,1.17,0,0,0-.347-.826L38.624.376a1.172,1.172,0,0,0-.711-.333L37.493,0c-.039,0-.078,0-.117-.005L9.527.133A9.115,9.115,0,0,0,.465,9.281l.28,58.463a9.118,9.118,0,0,0,9.106,9.062ZM45.787,20.049h-.034a6.767,6.767,0,0,1-6.765-6.733l-.045-9.335L55.156,20Zm0,0" transform="translate(-0.465 0.001)" fill="#d5d5d5"/>
      <path id="Path_32558" data-name="Path 32558" d="M140.6,221.52a1.17,1.17,0,0,0,0,2.339h3.967a1.17,1.17,0,0,0,0-2.339Zm0,0" transform="translate(-112.343 -178.336)" fill="#d5d5d5"/>
      <path id="Path_32559" data-name="Path 32559" d="M96.268,171.807a1.169,1.169,0,0,0-1.17-1.17H62.166a1.17,1.17,0,0,0,0,2.339H95.1A1.169,1.169,0,0,0,96.268,171.807Zm0,0" transform="translate(-49.196 -137.372)" fill="#d5d5d5"/>
      <path id="Path_32560" data-name="Path 32560" d="M62.166,221.52a1.17,1.17,0,0,0,0,2.339H72.431a1.17,1.17,0,1,0,0-2.339Zm0,0" transform="translate(-49.196 -178.336)" fill="#d5d5d5"/>
    </g>
    <path id="Path_32561" data-name="Path 32561" d="M217.407,284.529l7.3,7.3a1.17,1.17,0,0,0,1.654-1.654l-7.336-7.337a20.705,20.705,0,1,0-1.621,1.687ZM185.022,269.4a18.325,18.325,0,1,1,18.325,18.325A18.325,18.325,0,0,1,185.022,269.4Zm0,0" transform="translate(-146.633 -200.177)" fill="#e93940"/>
  </g>
</svg>
